<svg version="1.2" xmlns="http://www.w3.org/2000/svg" viewBox="0 0 1556 239" width="1556" height="239">
	<style>
		.s0 { fill: #ff8300 } 
		.s1 { fill: #53565a } 
		.s2 { fill: #00a7ce } 
	</style>
	<path class="s0" d="m92.51 66.17c-2.27 5.15-5.55 10.29-10.35 14.71-10.09 9.8-22.71 13.72-35.83 14.21l49.21 47.8c0.75-12.74 4.54-25 14.63-34.8 4.55-4.42 9.85-7.6 15.15-10.05-15.15-5.4-27.26-17.16-32.81-31.87z"/>
	<path class="s0" d="m81.64 174.29c18.68-18.14 18.68-47.55 0-65.69-18.67-18.14-48.96-18.14-67.63 0-18.68 18.14-18.68 47.55 0 65.69 18.67 18.14 48.96 18.14 67.63 0z"/>
	<path class="s1" d="m178.54 14.69c18.68 18.14 18.68 47.56 0 65.7-18.67 18.14-48.96 18.14-67.63 0-18.68-18.14-18.68-47.56 0-65.7 18.67-18.14 48.96-18.14 67.63 0z"/>
	<path class="s2" d="m372.34 14.69c-18.67-18.14-48.96-18.14-67.63 0-9.09 8.83-13.63 20.1-13.88 31.38-0.76 12.75-4.55 25-14.64 34.81-4.54 4.41-9.84 7.84-15.14 10.05 15.39 5.39 27.51 17.16 33.06 32.11 2.27-5.39 5.55-10.29 10.34-14.71 10.1-9.8 22.72-13.72 35.84-14.21 11.86-0.25 23.47-4.91 32.3-13.49 18.43-18.38 18.43-47.8-0.25-65.94zm-16.65 49.52c-4.55 4.41-10.86 6.86-17.17 6.86-6.56 0-12.61-2.45-17.16-6.86-9.59-9.32-9.59-24.27 0-33.58 4.55-4.42 10.85-6.87 17.16-6.87 6.57 0 12.62 2.45 17.17 6.87 4.54 4.41 7.06 10.54 7.06 16.67 0.25 6.61-2.27 12.5-7.06 16.91z"/>
	<path class="s1" d="m275.48 108.83c18.67 18.14 18.67 47.56 0 65.7-18.68 18.13-48.96 18.13-67.64 0-18.67-18.14-18.67-47.56 0-65.7 18.68-18.14 48.96-18.14 67.64 0z"/>
	<path class="s1" d="m207.33 80.87c-10.1-9.81-14.14-22.07-14.64-34.81l-49.46 47.8c13.12 0.73 25.74 4.41 35.83 14.21 10.1 9.81 14.13 22.07 14.64 34.81l49.21-47.8c-12.87-0.49-25.49-4.41-35.58-14.21z"/>
	<path fill-rule="evenodd" class="s1" d="m786.78 188.98c-24.22 0-39.37-14.46-39.37-37.5v-141.44c0-5.64 4.29-9.81 10.1-9.81 5.8 0 10.09 4.42 10.09 9.81v48.04h35.59c5.3 0 9.84 4.42 9.84 9.56 0 4.91-4.54 9.32-9.84 9.32h-35.59v73.29c0 13.48 6.82 19.86 21.2 19.86 5.3 0 8.58-0.98 10.85-1.72 1.27-0.49 2.28-0.73 3.54-0.73 5.05 0 9.59 4.41 9.59 9.31 0 3.92-2.27 7.11-6.56 8.58-4.8 1.47-11.11 3.43-19.44 3.43zm107.27 0.01c-17.41 0-37.6-6.62-51.48-16.67-1.77-1.22-3.79-4.41-3.79-7.6 0-5.14 4.54-9.8 10.1-9.8 2.27 0 4.54 0.73 6.31 1.96 12.61 8.82 25.74 13.24 39.62 13.24 15.64 0 26.5-8.09 26.5-19.37v-0.49c0-10.54-10.6-15.44-30.54-20.83l-0.51-0.25-0.5-0.24c-20.19-5.64-45.17-12.75-45.17-37.02v-0.49c0-21.82 19.18-37.75 45.67-37.75 13.88 0 29.53 4.17 42.91 11.52l0.25 0.25c3.28 2.2 5.05 5.15 5.05 8.58 0 5.14-4.55 9.8-10.1 9.8-2.02 0-4.04-0.49-5.55-1.47-10.85-6.13-22.21-9.56-33.06-9.56-14.64 0-24.73 7.11-24.73 17.41v0.49c0 10.29 13.37 14.7 32.3 20.1 16.66 4.41 44.42 12.01 44.42 38.24v0.49c-0.26 22.55-20.19 39.46-47.7 39.46zm91.33-1.47c-5.81 0-10.35-4.16-10.35-9.8v-167.67c0-5.64 4.29-10.05 10.1-10.05 5.8 0 10.09 4.41 10.09 10.05v167.42c0.25 5.89-4.04 10.05-9.84 10.05zm190.54 1.71c-38.36 0-68.65-29.66-68.65-67.65v-0.49c0-38.24 30.29-68.15 69.15-68.15 38.36 0 68.64 29.66 68.64 67.66v0.49c0 38.48-30.28 68.14-69.14 68.14zm0-117.17c-27.01 0-47.45 20.84-47.45 48.78v0.49c0 27.46 20.95 49.27 47.95 49.27 27.01 0 47.44-20.83 47.44-48.78v-0.49c0-27.7-20.94-49.27-47.94-49.27zm-523.94 117.17c-37.6 0-65.87-29.17-65.87-67.9v-0.49c0-37.99 28.01-67.9 63.85-67.9 35.84 0 61.83 28.44 61.83 67.41 0 4.9-4.8 9.56-10.1 9.56h-68.64c-5.55 0-9.59-3.92-9.59-9.07 0-5.39 4.04-9.31 9.59-9.31h57.29c-2.78-19.12-14.64-39.71-40.89-39.71-21.45 0-38.61 16.67-42.14 40.2l-0.5 3.92c-0.51 4.17-0.51 7.84 0 11.28v0.24c2.52 25.25 21.19 42.9 45.17 42.9 14.64 0 26.75-4.9 38.11-15.69 2.01-1.96 4.29-2.7 6.81-2.7 5.55 0 10.09 4.17 10.09 9.56 0 1.72-0.5 4.42-3.28 6.87-14.89 14.7-30.28 20.83-51.73 20.83zm629.44 49.75c-5.81 0-10.35-4.16-10.35-10.05v-113.74c0-37.5 29.78-62.01 65.11-62.01 38.36 0 68.64 29.66 68.64 67.65v0.49c0 38.24-30.28 68.15-69.14 68.15-17.42 0-33.07-6.13-44.42-17.41v56.87c0 5.89-4.04 10.05-9.84 10.05zm9.84-112.02c2.26 24.76 19.43 42.16 42.65 43.39 0.76 0 1.77 0 2.52 0 8.33 0 16.15-1.96 22.97-5.89 0.75-0.49 1.26-0.73 2.02-1.22 5.55-3.68 10.34-8.34 13.87-14.46 0.51-0.74 0.76-1.23 1.27-1.97 0.76-1.22 1.51-2.69 2.02-4.16 2.77-6.62 4.29-13.73 4.29-21.08v-0.49c0-5.89-1.01-11.77-2.78-17.16-0.51-1.47-1.01-2.94-1.76-4.41-0.51-1.48-1.27-2.95-2.03-4.17-4.29-7.36-10.09-13.48-17.4-17.65-0.76-0.49-1.27-0.74-2.03-0.98-1.25-0.74-2.77-1.23-4.29-1.72-3.03-0.98-6.05-1.96-9.08-2.45-1.52-0.24-3.29-0.49-4.8-0.49-0.76 0-1.77 0-2.52 0-24.48 0-42.15 17.4-44.67 43.14v11.77zm-207.2 60.55c-2.78 0-5.3-0.98-7.32-2.94l-62.59-61.53c-3.78-3.68-4.04-9.31-0.5-13.24l0.25-0.49 57.04-51.23c1.76-1.96 4.04-2.94 6.56-3.19 2.77-0.24 5.3 0.49 7.32 2.21 4.29 3.43 4.79 9.81 1.26 13.97l-0.5 0.49-50.48 44.62 55.78 54.91c2.01 1.96 3.02 4.41 3.02 7.1 0 2.7-1.01 5.15-3.02 6.87-1.52 1.47-4.04 2.45-6.82 2.45zm-537.28 1.73c-5.8 0-10.35-4.42-10.35-10.05v-68.64c0-24.02-13.62-38.24-36.59-38.24-22.96 0-36.59 14.22-36.59 38.24v68.64c0 5.63-4.54 10.05-10.35 10.05-5.8 0-10.09-4.17-10.09-10.05v-70.6c0-33.34 21.7-54.91 55.01-54.91h3.54c33.56 0 55.01 21.57 55.01 54.91v70.6c0.25 5.88-3.78 10.05-9.59 10.05zm949.39-0.01c-37.6 0-65.87-29.17-65.87-67.9v-0.49c0-37.99 28.02-67.9 63.86-67.9 35.84 0 61.83 28.44 61.83 67.41 0 5.15-4.55 9.56-10.09 9.56h-68.91c-5.54 0-9.58-3.92-9.58-9.07 0-5.39 4.04-9.31 9.58-9.31h57.3c-2.79-19.12-14.65-39.71-40.89-39.71-21.45 0-38.61 16.67-42.15 40.2l-0.5 3.92c-0.51 4.17-0.51 7.84 0 11.28v0.24c2.52 25.25 21.2 42.9 45.17 42.9 14.64 0 26.76-4.9 38.11-15.69 2.02-1.96 4.29-2.7 6.82-2.7 5.54 0 10.09 4.17 10.09 9.56 0 1.72-0.51 4.42-3.28 6.87-14.64 14.7-30.03 20.83-51.49 20.83z"/>
</svg>